<svg width="44" height="44" viewBox="0 0 44 44" fill="none" xmlns="http://www.w3.org/2000/svg">
<path d="M20.6 43.36C20.0667 43.36 19.6133 43.2 19.24 42.88C18.92 42.5067 18.76 42.0533 18.76 41.52V24.8H2.2C1.66667 24.8 1.21333 24.64 0.84 24.32C0.52 23.9467 0.36 23.4933 0.36 22.96V20.56C0.36 20.0267 0.52 19.6 0.84 19.28C1.21333 18.9067 1.66667 18.72 2.2 18.72H18.76V2.48C18.76 1.89333 18.92 1.44 19.24 1.12C19.6133 0.799997 20.0667 0.639997 20.6 0.639997H23.16C23.7467 0.639997 24.2 0.799997 24.52 1.12C24.84 1.44 25 1.89333 25 2.48V18.72H41.56C42.0933 18.72 42.52 18.9067 42.84 19.28C43.2133 19.6 43.4 20.0267 43.4 20.56V22.96C43.4 23.4933 43.2133 23.9467 42.84 24.32C42.52 24.64 42.0933 24.8 41.56 24.8H25V41.52C25 42.0533 24.8133 42.5067 24.44 42.88C24.12 43.2 23.6933 43.36 23.16 43.36H20.6Z" fill="#95B2D3"/>
</svg>
