<svg width="13" height="13" viewBox="0 0 13 13" fill="none" xmlns="http://www.w3.org/2000/svg">
<path opacity="0.8" d="M11.8794 1.18695C11.1568 0.421551 10.1961 0 9.17408 0C8.15217 0 7.19137 0.421521 6.46876 1.18692L2.69295 5.18634C2.69295 5.18634 2.69287 5.18643 2.69284 5.18649L0.633408 7.36787C0.176955 7.85138 -0.0452821 8.51921 0.0076818 9.24836C0.0587347 9.95132 0.362229 10.6301 0.862263 11.1598C1.40927 11.7392 2.13813 12.0715 2.86197 12.0714C3.47358 12.0714 4.03479 11.8337 4.44219 11.4022V11.4022L10.2775 5.22124C10.5723 4.90904 10.7346 4.49396 10.7346 4.05244C10.7346 3.61092 10.5723 3.19583 10.2775 2.88367C9.98283 2.57148 9.59098 2.39956 9.17411 2.39956C8.7573 2.39956 8.36542 2.57148 8.07068 2.88367L2.2353 9.06456C2.1545 9.15015 2.10998 9.26398 2.10998 9.385C2.10998 9.50602 2.1545 9.61985 2.23527 9.70541C2.31607 9.79099 2.42354 9.83815 2.5378 9.83815C2.65205 9.83815 2.75949 9.79099 2.84032 9.70541L8.67564 3.52452C8.80881 3.3835 8.98584 3.30583 9.17411 3.30583C9.36241 3.30583 9.53941 3.3835 9.67255 3.52452C9.80568 3.66554 9.87901 3.85302 9.87901 4.05244C9.87901 4.25185 9.80568 4.43934 9.67255 4.58036L3.83717 10.7613L3.83708 10.7614C3.5906 11.0224 3.24418 11.1661 2.86163 11.1661C2.36379 11.1661 1.85557 10.9302 1.46728 10.5189C1.11157 10.1421 0.896174 9.66619 0.860779 9.17888C0.827295 8.71769 0.961402 8.30215 1.23846 8.00872L3.29786 5.82737C3.29792 5.82731 3.29797 5.82728 3.298 5.82722L7.07381 1.8278C7.63485 1.23357 8.38074 0.906302 9.17411 0.906302C9.96748 0.906302 10.7134 1.23357 11.2744 1.8278C11.8354 2.42203 12.1444 3.21209 12.1444 4.05244C12.1444 4.89279 11.8354 5.68288 11.2744 6.27711L6.6977 11.1248C6.61687 11.2104 6.57232 11.3242 6.57232 11.4453C6.57232 11.5663 6.61687 11.6802 6.69753 11.7656C6.77833 11.8513 6.88583 11.8984 7.00014 11.8984C7.11445 11.8984 7.22192 11.8513 7.30263 11.7657L11.8794 6.91792C12.602 6.15252 13 5.13487 13 4.05241C13 2.96995 12.602 1.95233 11.8794 1.18695Z" fill="#919191"/>
</svg>
