<svg width="30" height="30" viewBox="0 0 30 30" fill="none" xmlns="http://www.w3.org/2000/svg">
<path d="M15 0C11.0218 0 7.20644 1.58035 4.3934 4.3934C1.58035 7.20644 0 11.0218 0 15V24.6429C0 24.927 0.112882 25.1995 0.313814 25.4005C0.514746 25.6014 0.787268 25.7143 1.07143 25.7143H7.5C7.78416 25.7143 8.05668 25.6014 8.25761 25.4005C8.45855 25.1995 8.57143 24.927 8.57143 24.6429V16.0714C8.57143 15.7873 8.45855 15.5147 8.25761 15.3138C8.05668 15.1129 7.78416 15 7.5 15H2.14286C2.14286 11.5901 3.49744 8.31981 5.90863 5.90863C8.31981 3.49744 11.5901 2.14286 15 2.14286C18.4099 2.14286 21.6802 3.49744 24.0914 5.90863C26.5026 8.31981 27.8571 11.5901 27.8571 15H22.5C22.2158 15 21.9433 15.1129 21.7424 15.3138C21.5415 15.5147 21.4286 15.7873 21.4286 16.0714V24.6429C21.4286 24.927 21.5415 25.1995 21.7424 25.4005C21.9433 25.6014 22.2158 25.7143 22.5 25.7143H27.8571V27.8571H16.0714V26.7857C16.0714 26.5016 15.9585 26.229 15.7576 26.0281C15.5567 25.8272 15.2842 25.7143 15 25.7143C14.7158 25.7143 14.4433 25.8272 14.2424 26.0281C14.0415 26.229 13.9286 26.5016 13.9286 26.7857V28.9286C13.9286 29.2127 14.0415 29.4853 14.2424 29.6862C14.4433 29.8871 14.7158 30 15 30H28.9286C29.2127 30 29.4853 29.8871 29.6862 29.6862C29.8871 29.4853 30 29.2127 30 28.9286V15C30 11.0218 28.4196 7.20644 25.6066 4.3934C22.7936 1.58035 18.9782 0 15 0Z" fill="#9F9F9F"/>
</svg>
