<svg width="26" height="27" viewBox="0 0 26 27" fill="none" xmlns="http://www.w3.org/2000/svg">
<path d="M25.8235 13.5068L25.8235 23.2252C25.8339 23.8436 25.6886 24.4547 25.4009 25.0022C25.1132 25.5498 24.6924 26.0161 24.1771 26.3582C23.579 26.7756 22.8669 26.9986 22.1376 26.9971L14.7659 26.9971C14.5213 27.0145 14.2776 26.9536 14.07 26.8233C13.8624 26.693 13.7016 26.5 13.6109 26.2722C13.5015 26.0581 13.4616 25.8152 13.4968 25.5773C13.5321 25.3394 13.6407 25.1185 13.8075 24.9453C13.9265 24.8133 14.0727 24.7087 14.236 24.6387C14.3994 24.5687 14.5759 24.535 14.7536 24.5398L22.0516 24.5398C22.2454 24.5451 22.4377 24.5045 22.6128 24.4212C22.7879 24.3379 22.9409 24.2144 23.0591 24.0607C23.2192 23.8578 23.3058 23.6066 23.3048 23.3481L23.3048 3.76382C23.3178 3.58678 23.2923 3.40902 23.2301 3.24278C23.1678 3.07653 23.0703 2.92575 22.9442 2.80081C22.8181 2.67587 22.6664 2.57974 22.4996 2.51904C22.3328 2.45834 22.1548 2.43451 21.9779 2.44919L14.7659 2.44919C14.5737 2.45584 14.3827 2.4173 14.2082 2.3367C14.0337 2.25609 13.8805 2.13566 13.761 1.98509C13.6415 1.83451 13.559 1.658 13.5202 1.46974C13.4813 1.28148 13.4871 1.08672 13.5372 0.901129C13.6049 0.657194 13.7462 0.440115 13.942 0.279573C14.1377 0.119034 14.3782 0.0228691 14.6307 0.00423426C14.6838 -0.00136381 14.7373 -0.00136381 14.7904 0.00423426L22.027 0.00423395C23.0046 0.00423391 23.9421 0.392564 24.6333 1.0838C25.3246 1.77504 25.7129 2.71255 25.7129 3.6901L25.8235 13.5068Z" fill="#9F9F9F"/>
<path d="M17.0867 14.4538L1.36034 14.4538C1.10469 14.4683 0.849881 14.4131 0.62317 14.2941C0.385492 14.1595 0.199446 13.9495 0.0944313 13.6973C-0.0105832 13.4452 -0.0285774 13.1652 0.0432922 12.9017C0.115162 12.6382 0.272797 12.4061 0.491287 12.2422C0.709777 12.0783 0.976662 11.9918 1.24977 11.9965L17.0867 11.9965L16.9393 11.8123L14.482 8.80213C14.3275 8.60164 14.2386 8.3583 14.2277 8.10539C14.2167 7.85249 14.284 7.60236 14.4206 7.38921C14.5215 7.21398 14.664 7.06635 14.8356 6.95941C15.0072 6.85246 15.2025 6.78952 15.4042 6.77615C15.606 6.76278 15.8079 6.7994 15.9921 6.88277C16.1763 6.96614 16.337 7.09367 16.4601 7.25406L20.4777 12.2791C20.6873 12.5358 20.8018 12.857 20.8018 13.1883C20.8018 13.5197 20.6873 13.8408 20.4777 14.0975L16.4478 19.1717C16.2445 19.4124 15.9563 19.5658 15.6431 19.6001C15.3298 19.6344 15.0153 19.547 14.7646 19.356C14.6384 19.2546 14.5335 19.1293 14.4559 18.9872C14.3783 18.8451 14.3295 18.6891 14.3124 18.5281C14.2952 18.3671 14.3101 18.2044 14.3561 18.0491C14.4021 17.8939 14.4783 17.7493 14.5803 17.6236L16.325 15.449L17.0867 14.4538Z" fill="#9F9F9F"/>
</svg>
