<svg width="28" height="28" viewBox="0 0 28 28" fill="none" xmlns="http://www.w3.org/2000/svg">
<rect x="-45" width="117" height="29" rx="1" fill="#E2E7F2"/>
<path opacity="0.5" d="M17.6216 20.39C17.0811 20.3 16.7027 19.82 16.7027 19.22V17.48C17.2703 16.79 17.6486 15.89 17.7297 14.87L17.7838 13.91C18.0811 13.73 18.3784 13.31 18.5135 12.77C18.7027 12.02 18.5405 11.36 18.1081 11.3C18.0541 11.3 18 11.3 17.9189 11.3L18.027 9.53C18.2162 7.07 16.5135 5 14.3514 5H13.6757C11.5135 5 9.81081 7.07 9.94595 9.53L10.0541 11.33C10 11.3 9.94595 11.3 9.89189 11.3C9.45946 11.36 9.2973 12.02 9.48649 12.77C9.62162 13.34 9.94595 13.76 10.2432 13.94L10.2973 14.87C10.3514 15.89 10.7297 16.79 11.2973 17.48V19.22C11.2973 19.82 10.9189 20.3 10.3784 20.39C8 20.84 4 22.76 4 24.8V29H24V24.8C24 22.76 20 20.84 17.6216 20.39Z" fill="#72A0C2"/>
</svg>
