<svg width="20" height="20" viewBox="0 0 20 20" fill="none" xmlns="http://www.w3.org/2000/svg">
<path d="M10 1.25C7.67936 1.25 5.45376 2.17187 3.81282 3.81282C2.17187 5.45376 1.25 7.67936 1.25 10V15.625C1.25 15.7908 1.31585 15.9497 1.43306 16.0669C1.55027 16.1842 1.70924 16.25 1.875 16.25H5.625C5.79076 16.25 5.94973 16.1842 6.06694 16.0669C6.18415 15.9497 6.25 15.7908 6.25 15.625V10.625C6.25 10.4592 6.18415 10.3003 6.06694 10.1831C5.94973 10.0658 5.79076 10 5.625 10H2.5C2.5 8.01088 3.29018 6.10322 4.6967 4.6967C6.10322 3.29018 8.01088 2.5 10 2.5C11.9891 2.5 13.8968 3.29018 15.3033 4.6967C16.7098 6.10322 17.5 8.01088 17.5 10H14.375C14.2092 10 14.0503 10.0658 13.9331 10.1831C13.8158 10.3003 13.75 10.4592 13.75 10.625V15.625C13.75 15.7908 13.8158 15.9497 13.9331 16.0669C14.0503 16.1842 14.2092 16.25 14.375 16.25H17.5V17.5H10.625V16.875C10.625 16.7092 10.5592 16.5503 10.4419 16.4331C10.3247 16.3158 10.1658 16.25 10 16.25C9.83424 16.25 9.67527 16.3158 9.55806 16.4331C9.44085 16.5503 9.375 16.7092 9.375 16.875V18.125C9.375 18.2908 9.44085 18.4497 9.55806 18.5669C9.67527 18.6842 9.83424 18.75 10 18.75H18.125C18.2908 18.75 18.4497 18.6842 18.5669 18.5669C18.6842 18.4497 18.75 18.2908 18.75 18.125V10C18.75 7.67936 17.8281 5.45376 16.1872 3.81282C14.5462 2.17187 12.3206 1.25 10 1.25Z" fill="#9F9F9F"/>
</svg>
