<svg width="20" height="20" viewBox="0 0 20 20" fill="none" xmlns="http://www.w3.org/2000/svg">
<path d="M19.0008 9.93812L19.0008 17.0888C19.0085 17.5438 18.9016 17.9934 18.6899 18.3963C18.4782 18.7991 18.1685 19.1422 17.7894 19.394C17.3494 19.7011 16.8254 19.8652 16.2888 19.8641L10.8648 19.8641C10.6849 19.8769 10.5055 19.8321 10.3528 19.7362C10.2 19.6403 10.0817 19.4983 10.015 19.3307C9.93447 19.1732 9.90512 18.9944 9.93105 18.8194C9.95698 18.6444 10.0369 18.4818 10.1596 18.3544C10.2472 18.2573 10.3548 18.1803 10.4749 18.1288C10.5951 18.0773 10.725 18.0525 10.8557 18.0561L16.2255 18.0561C16.3681 18.06 16.5096 18.03 16.6385 17.9688C16.7673 17.9075 16.8798 17.8166 16.9668 17.7035C17.0846 17.5542 17.1484 17.3694 17.1476 17.1792L17.1476 2.76938C17.1572 2.63912 17.1384 2.50833 17.0926 2.38601C17.0468 2.26368 16.9751 2.15274 16.8823 2.06081C16.7895 1.96889 16.6779 1.89815 16.5551 1.85349C16.4324 1.80883 16.3014 1.7913 16.1713 1.8021L10.8648 1.8021C10.7234 1.80699 10.5829 1.77864 10.4545 1.71933C10.3261 1.66002 10.2134 1.57141 10.1254 1.46062C10.0375 1.34983 9.9768 1.21995 9.9482 1.08143C9.9196 0.942911 9.9239 0.799612 9.96076 0.663057C10.0105 0.483574 10.1146 0.323849 10.2586 0.205727C10.4026 0.0876026 10.5796 0.0168476 10.7653 0.00313564C10.8044 -0.000982323 10.8438 -0.000982325 10.8828 0.00313564L16.2074 0.00313541C16.9267 0.00313537 17.6165 0.288864 18.1251 0.797464C18.6337 1.30606 18.9194 1.99587 18.9194 2.71514L19.0008 9.93812Z" fill="#9F9F9F"/>
<path d="M12.5722 10.6348L1.00092 10.6348C0.812811 10.6455 0.625329 10.6049 0.458519 10.5173C0.283639 10.4182 0.146749 10.2637 0.0694811 10.0782C-0.00778696 9.89269 -0.0210268 9.6867 0.0318537 9.4928C0.0847343 9.29891 0.20072 9.12816 0.361481 9.00755C0.522243 8.88694 0.718613 8.82333 0.91956 8.82679L12.5722 8.82679L12.4637 8.69119L10.6557 6.47638C10.542 6.32887 10.4766 6.14982 10.4685 5.96374C10.4604 5.77765 10.51 5.59361 10.6105 5.43678C10.6847 5.30785 10.7896 5.19923 10.9158 5.12054C11.042 5.04185 11.1858 4.99554 11.3342 4.9857C11.4826 4.97587 11.6312 5.00281 11.7667 5.06415C11.9022 5.12549 12.0205 5.21933 12.1111 5.33734L15.0672 9.03471C15.2214 9.22356 15.3056 9.45987 15.3056 9.70367C15.3056 9.94748 15.2214 10.1838 15.0672 10.3726L12.1021 14.1062C11.9524 14.2833 11.7404 14.3961 11.5099 14.4214C11.2794 14.4466 11.048 14.3823 10.8636 14.2418C10.7707 14.1672 10.6935 14.0749 10.6364 13.9704C10.5793 13.8659 10.5434 13.7511 10.5308 13.6326C10.5182 13.5142 10.5291 13.3944 10.563 13.2802C10.5968 13.166 10.6529 13.0596 10.728 12.9671L12.0117 11.367L12.5722 10.6348Z" fill="#9F9F9F"/>
</svg>
