<svg width="37" height="37" viewBox="0 0 37 37" fill="none" xmlns="http://www.w3.org/2000/svg">
<circle cx="18.5" cy="18.5" r="18" stroke="#EC1D22"/>
<path d="M16.7637 21.6641V21.0391C16.7637 20.3229 16.8939 19.7272 17.1543 19.252C17.4147 18.7767 17.8704 18.2852 18.5215 17.7773C19.2962 17.1654 19.7943 16.6901 20.0156 16.3516C20.2435 16.013 20.3574 15.6094 20.3574 15.1406C20.3574 14.5938 20.1751 14.1738 19.8105 13.8809C19.446 13.5879 18.9219 13.4414 18.2383 13.4414C17.6198 13.4414 17.0469 13.5293 16.5195 13.7051C15.9922 13.8809 15.4779 14.0924 14.9766 14.3398L14.1562 12.6211C15.4779 11.8854 16.8939 11.5176 18.4043 11.5176C19.6803 11.5176 20.6927 11.8301 21.4414 12.4551C22.1901 13.0801 22.5645 13.9427 22.5645 15.043C22.5645 15.5312 22.4928 15.9674 22.3496 16.3516C22.2064 16.7292 21.9883 17.0905 21.6953 17.4355C21.4089 17.7806 20.9108 18.2298 20.2012 18.7832C19.5957 19.2585 19.1888 19.6523 18.9805 19.9648C18.7786 20.2773 18.6777 20.6973 18.6777 21.2246V21.6641H16.7637ZM16.3633 24.7793C16.3633 23.7962 16.8418 23.3047 17.7988 23.3047C18.2676 23.3047 18.6257 23.4349 18.873 23.6953C19.1204 23.9492 19.2441 24.3105 19.2441 24.7793C19.2441 25.2415 19.1172 25.6094 18.8633 25.8828C18.6159 26.1497 18.2611 26.2832 17.7988 26.2832C17.3366 26.2832 16.9818 26.153 16.7344 25.8926C16.487 25.6257 16.3633 25.2546 16.3633 24.7793Z" fill="#EC1D22"/>
</svg>
