<svg width="15" height="13" viewBox="0 0 15 13" fill="none" xmlns="http://www.w3.org/2000/svg">
<g opacity="0.6">
<path fill-rule="evenodd" clip-rule="evenodd" d="M12.4477 1.3H11.7977V0.65C11.7977 0.477609 11.7292 0.312279 11.6073 0.190381C11.4854 0.0684819 11.32 0 11.1477 0C10.9753 0 10.8099 0.0684819 10.688 0.190381C10.5661 0.312279 10.4977 0.477609 10.4977 0.65V1.3H3.99766V0.65C3.99766 0.477609 3.92917 0.312279 3.80728 0.190381C3.68538 0.0684819 3.52005 0 3.34766 0C3.17527 0 3.00994 0.0684819 2.88804 0.190381C2.76614 0.312279 2.69766 0.477609 2.69766 0.65V1.3H2.04766C1.53048 1.3 1.03449 1.50545 0.668798 1.87114C0.303102 2.23684 0.0976563 2.73283 0.0976562 3.25V11.05C0.0976563 11.5672 0.303102 12.0632 0.668798 12.4289C1.03449 12.7946 1.53048 13 2.04766 13H12.4477C12.9648 13 13.4608 12.7946 13.8265 12.4289C14.1922 12.0632 14.3977 11.5672 14.3977 11.05V3.25C14.3977 2.73283 14.1922 2.23684 13.8265 1.87114C13.4608 1.50545 12.9648 1.3 12.4477 1.3ZM1.39766 3.25C1.39766 3.07761 1.46614 2.91228 1.58804 2.79038C1.70994 2.66848 1.87527 2.6 2.04766 2.6H12.4477C12.62 2.6 12.7854 2.66848 12.9073 2.79038C13.0292 2.91228 13.0977 3.07761 13.0977 3.25V3.9H1.39766V3.25ZM13.0977 11.05C13.0977 11.2224 13.0292 11.3877 12.9073 11.5096C12.7854 11.6315 12.62 11.7 12.4477 11.7H2.04766C1.87527 11.7 1.70994 11.6315 1.58804 11.5096C1.46614 11.3877 1.39766 11.2224 1.39766 11.05V5.2H13.0977V11.05Z" fill="#727272"/>
<path d="M4.13093 6.5H3.22093C2.93374 6.5 2.70093 6.73281 2.70093 7.02V7.93C2.70093 8.21719 2.93374 8.45 3.22093 8.45H4.13093C4.41812 8.45 4.65093 8.21719 4.65093 7.93V7.02C4.65093 6.73281 4.41812 6.5 4.13093 6.5Z" fill="#727272"/>
<path d="M7.38093 6.5H6.47093C6.18374 6.5 5.95093 6.73281 5.95093 7.02V7.93C5.95093 8.21719 6.18374 8.45 6.47093 8.45H7.38093C7.66812 8.45 7.90093 8.21719 7.90093 7.93V7.02C7.90093 6.73281 7.66812 6.5 7.38093 6.5Z" fill="#727272"/>
</g>
</svg>
