<svg width="32" height="16" viewBox="0 0 32 16" fill="none" xmlns="http://www.w3.org/2000/svg">
<g opacity="0.7">
<path d="M11.1371 3.15931C11.2862 3.00884 11.4804 2.91362 11.6818 2.89225C11.8831 2.87088 12.0771 2.9249 12.2259 3.04375L20.985 11.8028C21.1284 11.9462 21.2025 12.1472 21.1909 12.3615C21.1794 12.5758 21.0832 12.786 20.9235 12.9457C20.7638 13.1054 20.5536 13.2016 20.3393 13.2131C20.125 13.2246 19.924 13.1506 19.7806 13.0072L11.0216 4.24811C10.9027 4.0993 10.8487 3.90528 10.8701 3.70396C10.8914 3.50263 10.9866 3.30844 11.1371 3.15931Z" fill="#5181B8"/>
<path d="M20.6757 2.97522C20.8262 3.12435 20.9214 3.31853 20.9428 3.51986C20.9641 3.72119 20.9101 3.91521 20.7912 4.06403L12.0316 12.8235C11.8882 12.967 11.6872 13.041 11.4729 13.0295C11.2586 13.018 11.0484 12.9218 10.8887 12.7621C10.729 12.6024 10.6328 12.3923 10.6213 12.1779C10.6098 11.9636 10.6839 11.7626 10.8273 11.6192L19.5869 2.85969C19.7357 2.74083 19.9297 2.68681 20.1311 2.70817C20.3324 2.72953 20.5266 2.82475 20.6757 2.97522Z" fill="#5181B8"/>
</g>
</svg>
