<svg width="12" height="12" viewBox="0 0 12 12" fill="none" xmlns="http://www.w3.org/2000/svg">
<path fill-rule="evenodd" clip-rule="evenodd" d="M0 5.97828C0 9.28038 2.67607 11.9565 5.97822 11.9565C9.28032 11.9565 11.9564 9.28038 11.9564 5.97828C11.9564 2.67624 9.28032 0 5.97822 0C2.67607 2.8e-05 0 2.67627 0 5.97828ZM1.27193 5.97828C1.27193 5.67294 1.29973 5.37533 1.35593 5.08791H2.57692C2.55408 5.33982 2.54386 5.59423 2.54386 5.85108C2.54386 6.10795 2.55408 6.36236 2.57692 6.6143H1.31272C1.28464 6.40562 1.27193 6.19455 1.27193 5.97828ZM1.79864 3.81595C2.16975 3.09602 2.72202 2.48545 3.39604 2.04288C3.129 2.60509 2.92057 3.19785 2.77547 3.81595H1.79864ZM5.30398 1.32034L5.34223 1.31524V3.81598H4.09063C4.34252 2.90522 4.7572 2.06066 5.30398 1.32034ZM6.61424 1.31524L6.64978 1.32034C7.19681 2.06069 7.61393 2.90522 7.86579 3.81598H6.61427V1.31524H6.61424ZM8.55761 2.04291C9.23197 2.48548 9.78645 3.09602 10.1578 3.81598H9.17843C9.03596 3.19788 8.82479 2.60512 8.55761 2.04291ZM10.6005 5.08791C10.6565 5.37533 10.6845 5.67297 10.6845 5.97828C10.6845 6.19452 10.6691 6.40559 10.6413 6.6143H9.38193C9.40237 6.36236 9.41257 6.10795 9.41257 5.85108C9.41257 5.5942 9.4024 5.3398 9.38193 5.08791H10.6005ZM10.2826 7.88628C9.88308 8.78433 9.21152 9.53481 8.37214 10.0307C8.72844 9.36172 9.00038 8.64203 9.17848 7.88628H10.2826ZM3.58434 10.0307C2.74492 9.53481 2.07337 8.78433 1.6739 7.88628H2.77794C2.95604 8.64203 3.22812 9.3644 3.58434 10.0307ZM3.85414 5.08791H5.34223V6.61433H3.85414C3.82855 6.36238 3.8159 6.10798 3.8159 5.8511C3.8159 5.59423 3.82858 5.33982 3.85414 5.08791ZM6.61424 5.08791H8.10233C8.1279 5.33982 8.14061 5.59423 8.14061 5.85108C8.14061 6.10795 8.1279 6.36236 8.10233 6.6143H6.61424V5.08791ZM4.09063 7.88628H5.34223V10.4302C4.7773 9.67719 4.3475 8.81737 4.09063 7.88628ZM6.61424 7.88628H7.86576C7.60889 8.8174 7.17889 9.67719 6.61424 10.4302V7.88628Z" fill="#5181B8"/>
</svg>
