<svg width="13" height="13" viewBox="0 0 13 13" fill="none" xmlns="http://www.w3.org/2000/svg">
<path opacity="0.7" d="M4.875 9.75C3.978 9.75 3.25 10.478 3.25 11.375C3.25 12.272 3.978 13 4.875 13C5.772 13 6.5 12.272 6.5 11.375C6.5 10.478 5.772 9.75 4.875 9.75ZM9.75 9.75C8.853 9.75 8.125 10.478 8.125 11.375C8.125 12.272 8.853 13 9.75 13C10.647 13 11.375 12.272 11.375 11.375C11.375 10.478 10.647 9.75 9.75 9.75ZM12.1875 1.625H3.30688L3.0875 0.8125C2.92013 0.082875 2.46269 0 2.24738 0H0.8125C0.364 0 0 0.364 0 0.8125C0 1.261 0.364 1.625 0.8125 1.625H1.625L3.25 7.47744C3.40275 7.96006 3.76431 8.125 4.0625 8.125H10.5625C10.8989 8.125 11.1971 7.95356 11.375 7.49044L12.7684 3.25C12.8919 2.85675 13 2.64062 13 2.4375C13 1.898 12.5369 1.625 12.1875 1.625ZM9.98969 6.5H4.66538L3.76269 3.25H11.0581L9.98969 6.5Z" fill="#5181B8"/>
</svg>
