<svg width="58" height="58" viewBox="0 0 58 58" fill="none" xmlns="http://www.w3.org/2000/svg">
<rect x="0.21875" y="-1" width="57.7836" height="59.2652" fill="white"/>
<rect opacity="0.1" x="0.21875" y="-1" width="57.7836" height="59.2652" fill="#72A0C2"/>
<path opacity="0.5" d="M36.6527 42.5492C35.5581 42.3826 34.7919 41.4936 34.7919 40.3824V37.1598C35.9412 35.8819 36.7074 34.2151 36.8716 32.326L36.981 30.548C37.583 30.2147 38.185 29.4368 38.4586 28.4367C38.8417 27.0477 38.5134 25.8253 37.6377 25.7142C37.5283 25.7142 37.4188 25.7142 37.2547 25.7142L37.4736 22.4361C37.8566 17.8801 34.4089 14.0464 30.0307 14.0464H28.6625C24.2844 14.0464 20.8366 17.8801 21.1102 22.4361L21.3291 25.7698C21.2197 25.7142 21.1102 25.7142 21.0008 25.7142C20.1251 25.8253 19.7968 27.0477 20.1799 28.4367C20.4535 29.4924 21.1102 30.2702 21.7122 30.6036L21.8217 32.326C21.9311 34.2151 22.6973 35.8819 23.8466 37.1598V40.3824C23.8466 41.4936 23.0804 42.3826 21.9859 42.5492C17.1699 43.3827 9.07031 46.9386 9.07031 50.7167V58.4953H49.5682V50.7167C49.5682 46.9386 41.4686 43.3827 36.6527 42.5492Z" fill="#72A0C2"/>
</svg>
